<?xml version="1.0" encoding="UTF-8"?>
<svg version="1.1" xmlns="http://www.w3.org/2000/svg" width="316" height="160">
<path d="M0 0 C104.28 0 208.56 0 316 0 C316 52.8 316 105.6 316 160 C211.72 160 107.44 160 0 160 C0 107.2 0 54.4 0 0 Z " fill="#2E8D46" transform="translate(0,0)"/>
<path d="M0 0 C23.43 0 46.86 0 71 0 C71 52.8 71 105.6 71 160 C48.23 160 25.46 160 2 160 C2 159.67 2 159.34 2 159 C2.77601563 158.91363281 3.55203125 158.82726562 4.3515625 158.73828125 C24.25538493 156.14935924 41.1988903 147.87444886 54.13671875 132.453125 C67.50019134 114.24865475 68 95.5416145 68 73 C26.09 73 -15.82 73 -59 73 C-56.06644101 56.86542557 -49.7905899 44.90696753 -36.16796875 35.30859375 C-23.29666106 27.53942605 -9.86572434 25.06831567 4.8671875 27.6875 C15.03033936 30.35616132 23.20942512 35.02948563 31 42 C34.15204981 40.60652624 36.26171773 38.97514921 38.671875 36.5234375 C39.66767578 35.51796875 39.66767578 35.51796875 40.68359375 34.4921875 C41.36550781 33.79351562 42.04742187 33.09484375 42.75 32.375 C43.44738281 31.66859375 44.14476562 30.9621875 44.86328125 30.234375 C46.58012488 28.49401297 48.29211832 26.74915019 50 25 C45.44074648 15.27182533 33.56850038 9.77482052 24 6 C16.20057253 3.30366005 8.2353858 1.57792181 0 1 C0 0.67 0 0.34 0 0 Z " fill="#FCFDFC" transform="translate(245,0)"/>
<path d="M0 0 C22.44 0 44.88 0 68 0 C68 0.33 68 0.66 68 1 C66.38544922 1.23783203 66.38544922 1.23783203 64.73828125 1.48046875 C46.70292986 4.2916848 32.6299587 10.60912845 19 23 C21.16779311 27.84309854 24.68109226 31.08711009 28.375 34.8125 C29.04789063 35.51826172 29.72078125 36.22402344 30.4140625 36.95117188 C31.06890625 37.61310547 31.72375 38.27503906 32.3984375 38.95703125 C32.99317871 39.56522705 33.58791992 40.17342285 34.20068359 40.80004883 C35.93479941 42.23292822 35.93479941 42.23292822 38.10400391 41.78100586 C40.4862987 40.79968201 42.05812118 39.44178837 44 37.75 C49.21948616 33.56237272 54.72455619 31.21588085 61 29 C61.67675781 28.7525 62.35351562 28.505 63.05078125 28.25 C76.33274871 24.15448969 90.65329276 27.63619416 102.75 33.625 C114.67153678 40.63766869 123.15493421 51.78849599 126.9375 65.0625 C127.6265219 67.87222403 128 70.0961045 128 73 C86.09 73 44.18 73 1 73 C1 75.31 1 77.62 1 80 C0.67 80 0.34 80 0 80 C0 53.6 0 27.2 0 0 Z " fill="#FCFDFC" transform="translate(0,0)"/>
<path d="M0 0 C48.18 0 96.36 0 146 0 C146 0.33 146 0.66 146 1 C144.9584375 1.13535156 143.916875 1.27070313 142.84375 1.41015625 C121.93201562 4.42426081 102.91433175 13.82244291 90 31 C80.97173618 44.01711492 76.41313312 56.54025284 74 72 C73.34 72 72.68 72 72 72 C71.84144531 70.98421875 71.68289062 69.9684375 71.51953125 68.921875 C70.05183292 60.05074263 68.0524033 52.1048066 64 44 C63.50757813 43.01515625 63.01515625 42.0303125 62.5078125 41.015625 C51.80209915 21.24335058 34.25240806 9.40596517 13 3 C10.71640035 2.57865246 8.42380706 2.20340101 6.125 1.875 C4.97257812 1.70742188 3.82015625 1.53984375 2.6328125 1.3671875 C1.76398438 1.24601563 0.89515625 1.12484375 0 1 C0 0.67 0 0.34 0 0 Z " fill="#FDFDFD" transform="translate(84,0)"/>
<path d="M0 0 C1.32 0 2.64 0 4 0 C4.4125 1.22074219 4.825 2.44148438 5.25 3.69921875 C12.55766728 24.76590362 23.48817024 42.50387583 44.01318359 53.03271484 C52.68621758 57.22046451 61.31340136 60.71688138 71 61.625 C71.763125 61.69976562 72.52625 61.77453125 73.3125 61.8515625 C73.869375 61.90054688 74.42625 61.94953125 75 62 C75 62.33 75 62.66 75 63 C27.48 63 -20.04 63 -69 63 C-69 62.67 -69 62.34 -69 62 C-68.14019531 61.84144531 -67.28039062 61.68289062 -66.39453125 61.51953125 C-44.83737499 57.26452004 -26.31818563 47.77260729 -13.1875 29.8125 C-7.16493815 20.64725588 -2.83142031 10.58704986 0 0 Z " fill="#FDFDFD" transform="translate(155,97)"/>
<path d="M0 0 C31.68 0 63.36 0 96 0 C94.1663632 11.00182081 87.61516625 19.08000123 79 26 C64.39112356 35.10061155 49.17680646 38.21660222 32.25 34.875 C26.06994619 33.26248596 21.13956538 30.76044867 16 27 C15.2059375 26.42378906 14.411875 25.84757812 13.59375 25.25390625 C5.208291 18.53156329 1.50357193 10.52500353 0 0 Z " fill="#FCFDFC" transform="translate(29,97)"/>
<path d="M0 0 C31.68 0 63.36 0 96 0 C94.30641988 11.85506086 89.36124353 20.4522015 79.859375 27.61328125 C67.67160366 35.74518829 53.12828772 37.54444638 38.84765625 35.5625 C24.84178095 32.61776932 13.42406676 24.90192108 5.0859375 13.34765625 C2.05964139 8.57872991 0.9638072 5.78284318 0 0 Z " fill="#FCFDFD" transform="translate(189,97)"/>
<path d="M0 0 C0.33 0 0.66 0 1 0 C1.23074219 1.16015625 1.46148437 2.3203125 1.69921875 3.515625 C5.86540019 23.78741542 13.359497 40.18462518 31.1171875 52.08984375 C41.97693384 58.86425695 54.14859821 63.31153205 67 64 C67 64.33 67 64.66 67 65 C44.89 65 22.78 65 0 65 C0 43.55 0 22.1 0 0 Z " fill="#FCFDFC" transform="translate(0,95)"/>
</svg>
